# xmcd
#
# Track frame offsets:
#	150
#	13774
#	23684
#	40001
#	51783
#	66540
#	84405
#	99298
#	109739
#	123334
#	137203
#	148231
#	166574
#
# Disc length: 2432 seconds
# Revision: 0
# Processed by: cddbd v1.5.2PL0 Copyright (c) Steve Scherf et al.
# Submitted via: dBpowerAMP V12.0
#
DISCID=a8097e0d
DTITLE=Scott Miller - For Crying Out Loud
DYEAR=2009
DGENRE=Americana
TTITLE0=Cheap Ain't Cheap (For Crying Out Loud)
TTITLE1=Sin In Indiana
TTITLE2=Iron Gate
TTITLE3=I'm Right Here, My Love
TTITLE4=Let You Down
TTITLE5=Heart In Harm's Way
TTITLE6=Wildcat Whistle
TTITLE7=She's Still Mine
TTITLE8=Claire Marie
TTITLE9=I Can't Dance
TTITLE10=Feel So Fair To Midland
TTITLE11=Double Indemnity
TTITLE12=Appalachian Refugee
EXTD=
EXTT0=
EXTT1=
EXTT2=
EXTT3=
EXTT4=
EXTT5=
EXTT6=
EXTT7=
EXTT8=
EXTT9=
EXTT10=
EXTT11=
EXTT12=
PLAYORDER=
